<?xml version="1.0" encoding="UTF-8"?>
<svg width="24px" height="24px" viewBox="0 0 24 24" version="1.1" xmlns="http://www.w3.org/2000/svg">
    <g stroke="none" stroke-width="1" fill="none" fill-rule="evenodd">
        <path d="M12,2 C17.5228475,2 22,4.13400675 22,7 L22,17 C22,19.8659932 17.5228475,22 12,22 C6.4771525,22 2,19.8659932 2,17 L2,7 C2,4.13400675 6.4771525,2 12,2 Z M12,4 C7.581722,4 4,5.6862915 4,7 C4,8.3137085 7.581722,10 12,10 C16.418278,10 20,8.3137085 20,7 C20,5.6862915 16.418278,4 12,4 Z M4,9.17070571 C4.83575699,9.58254235 5.87439001,9.89264659 7,10.0703811 L7,17 C7,17.5522847 6.55228475,18 6,18 C5.44771525,18 5,17.5522847 5,17 L5,9.17070571 Z M12,12 C7.581722,12 4,13.6862915 4,15 C4,16.3137085 7.581722,18 12,18 C16.418278,18 20,16.3137085 20,15 C20,13.6862915 16.418278,12 12,12 Z M19,9.17070571 C19.835757,9.58254235 20.87439,9.89264659 22,10.0703811 L22,17 C22,17.5522847 21.5522847,18 21,18 C20.4477153,18 20,17.5522847 20,17 L20,9.17070571 Z" fill="currentColor" fill-rule="nonzero"></path>
    </g>
</svg> 