<?xml version="1.0" standalone="no"?>
<!DOCTYPE svg PUBLIC "-//W3C//DTD SVG 20010904//EN"
 "http://www.w3.org/TR/2001/REC-SVG-20010904/DTD/svg10.dtd">
<svg version="1.0" xmlns="http://www.w3.org/2000/svg"
 width="751.000000pt" height="517.000000pt" viewBox="0 0 751.000000 517.000000"
 preserveAspectRatio="xMidYMid meet">

<g transform="translate(0.000000,517.000000) scale(0.100000,-0.100000)"
fill="#000000" stroke="none">
<path d="M5026 5152 c-3 -5 -56 -12 -118 -16 -245 -14 -459 -49 -708 -116 -63
-17 -133 -35 -155 -41 -52 -13 -242 -77 -280 -94 -16 -7 -57 -23 -90 -35 -233
-84 -671 -323 -870 -475 -157 -120 -241 -193 -366 -319 -61 -61 -109 -117
-109 -128 0 -15 3 -17 19 -8 11 5 23 14 26 20 14 23 372 270 391 270 4 0 25
13 49 29 24 16 54 32 67 36 12 4 34 15 48 24 42 28 343 171 360 171 10 0 87
32 122 51 10 5 25 9 33 9 8 0 23 4 33 10 15 9 154 56 192 66 19 4 79 21 123
33 17 5 61 17 97 26 36 9 81 20 100 25 54 15 229 50 237 48 5 -1 19 2 33 5 14
4 48 9 75 12 28 3 91 10 140 16 137 17 623 23 735 10 234 -28 352 -50 535
-101 42 -12 82 -25 145 -50 30 -11 64 -24 75 -27 36 -11 238 -116 295 -152
159 -103 360 -289 458 -426 47 -67 152 -271 152 -297 0 -9 5 -20 10 -23 6 -3
10 -15 10 -26 0 -10 4 -27 9 -37 14 -25 49 -186 59 -272 5 -41 11 -86 13 -100
3 -26 3 -364 -1 -402 -14 -149 -29 -235 -71 -415 -16 -68 -96 -310 -119 -361
-46 -98 -65 -137 -70 -142 -3 -3 -19 -32 -35 -65 -46 -92 -179 -288 -209 -307
-8 -5 -7 -11 2 -20 10 -10 39 14 148 122 122 122 267 280 334 366 14 18 53 68
87 112 244 313 408 679 444 995 7 53 16 97 20 97 5 0 9 36 9 80 0 44 -4 80 -9
80 -5 0 -12 30 -16 68 -8 90 -23 174 -45 247 -10 33 -21 74 -25 90 -3 17 -13
44 -20 60 -7 17 -21 53 -31 80 -29 80 -103 221 -157 300 -94 138 -268 324
-382 410 -64 48 -164 115 -171 115 -4 0 -15 6 -23 14 -31 26 -276 144 -356
171 -27 10 -59 21 -70 25 -38 15 -220 69 -290 85 -120 29 -387 65 -482 65 -34
0 -65 5 -68 10 -8 12 -332 14 -339 2z"/>
<path d="M2440 4450 c-26 -14 -88 -40 -95 -40 -9 0 -108 -47 -300 -141 -217
-107 -312 -160 -480 -266 -141 -89 -225 -147 -299 -203 -32 -25 -68 -52 -80
-60 -11 -8 -34 -27 -51 -42 -16 -16 -33 -28 -37 -28 -4 0 -13 -6 -20 -13 -7
-7 -74 -67 -148 -133 -334 -298 -630 -698 -755 -1019 -15 -38 -31 -78 -36 -87
-5 -10 -9 -27 -9 -37 0 -11 -5 -23 -10 -26 -6 -3 -10 -17 -10 -30 0 -13 -4
-26 -9 -29 -5 -3 -11 -20 -14 -38 -3 -18 -11 -55 -17 -83 -45 -205 -46 -471
-1 -675 71 -328 240 -614 497 -845 82 -72 226 -179 309 -227 33 -20 307 -155
343 -169 12 -5 32 -13 45 -18 59 -25 236 -81 255 -81 11 0 23 -4 26 -9 3 -5
20 -11 38 -14 18 -3 53 -11 78 -17 152 -38 316 -65 455 -76 39 -2 84 -9 100
-14 39 -12 793 -12 815 0 9 5 52 10 96 11 43 0 93 5 109 10 17 5 55 11 85 13
92 8 326 47 455 76 28 7 64 13 80 16 17 2 55 11 85 20 30 9 66 18 80 20 74 12
96 18 109 28 8 6 24 9 36 8 13 -2 26 2 30 7 3 6 17 11 30 11 13 0 27 4 30 10
3 5 17 10 31 10 13 0 32 4 42 9 9 5 51 19 92 32 41 12 80 26 85 30 6 5 30 11
53 15 23 4 42 10 42 15 0 5 9 9 20 9 11 0 28 4 38 9 9 5 28 13 42 18 14 6 36
15 50 20 14 6 45 20 68 32 24 11 50 21 58 21 8 0 14 5 14 11 0 6 7 9 15 6 8
-4 17 -2 20 3 4 6 15 10 26 10 10 0 19 5 19 10 0 6 6 10 12 10 7 0 56 21 108
46 52 25 115 56 140 67 25 12 47 24 50 27 3 3 19 12 35 20 17 8 41 22 55 31
14 9 57 34 95 54 39 21 89 51 112 66 23 16 44 29 46 29 2 0 55 35 118 78 316
215 649 493 635 529 -5 11 -22 2 -69 -35 -66 -52 -351 -248 -402 -276 -16 -9
-43 -25 -60 -36 -16 -11 -50 -31 -75 -44 -25 -14 -61 -34 -80 -45 -81 -48
-479 -241 -497 -241 -5 0 -30 -12 -58 -25 -27 -14 -56 -25 -63 -25 -7 0 -20
-4 -30 -9 -9 -5 -30 -14 -47 -21 -16 -7 -38 -16 -47 -21 -10 -5 -25 -9 -33 -9
-8 0 -23 -4 -33 -10 -18 -10 -95 -36 -147 -50 -16 -5 -55 -16 -85 -25 -81 -24
-121 -35 -160 -45 -19 -5 -71 -18 -115 -30 -150 -40 -250 -61 -485 -101 -548
-93 -1134 -100 -1600 -19 -30 5 -80 13 -110 19 -144 24 -355 84 -495 141 -11
4 -36 14 -55 21 -103 37 -379 186 -442 238 -7 6 -42 34 -78 63 -177 141 -308
303 -399 493 -59 124 -84 198 -106 320 -23 122 -23 444 -1 570 19 104 53 242
67 267 5 10 9 25 9 33 0 8 4 23 9 33 5 9 13 28 18 42 107 270 263 525 479 780
110 130 439 447 503 484 9 5 25 18 36 28 42 40 231 179 304 223 9 6 36 25 60
43 24 17 48 32 53 32 5 0 18 9 30 20 12 11 28 20 35 20 7 0 13 5 13 10 0 6 5
10 10 10 6 0 38 17 73 38 34 20 83 48 109 62 46 24 65 45 50 53 -4 3 -14 1
-22 -3z"/>
<path d="M5310 3584 c-118 -24 -125 -25 -145 -34 -11 -5 -42 -17 -70 -26 -201
-73 -355 -229 -408 -414 -16 -54 -20 -258 -6 -294 38 -101 67 -145 144 -221
90 -87 118 -105 375 -229 174 -84 240 -153 239 -251 -1 -94 -69 -172 -180
-210 -64 -21 -254 -25 -340 -6 -71 16 -129 31 -154 42 -11 4 -41 15 -67 23
-50 16 -82 32 -110 54 -21 17 -32 1 -81 -113 -19 -44 -49 -111 -66 -149 -18
-38 -30 -74 -28 -80 3 -7 36 -27 73 -45 38 -18 77 -37 86 -42 10 -5 27 -9 37
-9 11 0 23 -4 26 -10 3 -5 19 -10 35 -10 16 0 31 -4 34 -9 3 -4 29 -11 58 -15
29 -3 73 -9 98 -12 62 -8 303 -9 370 -1 30 4 75 11 100 17 25 6 60 14 78 17
17 3 32 9 32 14 0 5 8 9 18 9 16 0 110 44 157 73 189 118 282 270 302 494 12
149 -29 270 -130 379 -66 72 -155 133 -272 189 -189 90 -227 110 -280 150 -49
37 -59 49 -86 104 -19 40 -19 49 -8 89 32 113 183 182 370 169 146 -11 261
-37 341 -78 30 -15 43 -10 56 24 8 17 17 41 22 52 31 74 102 266 99 268 -4 3
-27 13 -79 35 -49 21 -148 46 -241 61 -88 15 -318 12 -399 -5z"/>
<path d="M2409 3563 l-647 -3 -5 -43 c-9 -70 -34 -213 -67 -377 -18 -85 -36
-180 -41 -210 -10 -55 -23 -126 -39 -210 -5 -25 -14 -70 -19 -100 -8 -47 -24
-133 -93 -490 -5 -30 -14 -76 -19 -102 -5 -27 -13 -69 -18 -95 -5 -27 -14 -75
-19 -108 -10 -56 -45 -231 -53 -265 -4 -13 77 -15 676 -15 l680 0 3 30 c3 28
46 263 57 313 l5 22 -444 0 c-350 0 -446 3 -454 13 -7 8 -8 26 -2 52 4 22 14
67 20 100 6 33 16 76 21 96 5 20 9 52 9 72 0 20 5 39 10 42 6 3 10 23 10 44 0
74 -22 71 425 73 l400 3 17 90 c10 50 22 113 28 140 5 28 12 67 15 88 l6 37
-401 0 -400 0 0 36 c0 19 4 54 9 77 9 40 21 99 42 217 6 30 13 65 15 78 l4 22
424 0 424 0 12 53 c25 114 29 134 39 187 15 81 23 140 19 138 -1 -2 -294 -4
-649 -5z"/>
<path d="M4035 3560 l-820 -5 -6 -40 c-4 -22 -12 -67 -19 -100 -13 -67 -28
-144 -36 -192 l-6 -33 243 -2 244 -3 -2 -35 c-1 -19 -7 -60 -13 -90 -12 -63
-25 -130 -39 -210 -12 -75 -49 -273 -62 -340 -6 -30 -15 -75 -20 -100 -4 -25
-13 -66 -19 -92 -5 -26 -10 -60 -10 -75 0 -16 -4 -33 -9 -38 -5 -6 -11 -30
-14 -55 -6 -60 -36 -231 -43 -250 -4 -8 -8 -28 -9 -45 -3 -28 -13 -83 -36
-195 -5 -25 -12 -62 -15 -82 l-7 -38 222 0 c214 0 221 1 221 20 0 11 4 39 10
62 11 50 21 103 56 293 41 228 63 347 73 395 5 25 15 77 21 115 6 39 16 86 20
105 5 19 14 64 20 100 6 36 15 85 20 110 5 25 20 110 35 190 15 80 32 170 39
200 l13 55 223 5 c184 4 224 8 231 20 4 8 19 41 34 74 42 95 201 242 282 262
13 4 20 10 17 15 -3 5 -8 8 -12 7 -4 -2 -376 -5 -827 -8z"/>
<path d="M6960 1523 c-40 -6 -121 -73 -155 -127 -27 -45 -30 -57 -30 -135 1
-97 19 -143 77 -197 92 -86 200 -100 317 -42 157 80 189 301 61 428 -67 68
-153 91 -270 73z m206 -59 c27 -16 62 -50 79 -74 25 -38 30 -57 33 -117 4 -60
0 -80 -17 -114 -74 -141 -256 -184 -367 -86 -65 56 -87 103 -88 182 0 85 24
137 86 188 57 46 91 57 164 54 48 -2 73 -9 110 -33z"/>
<path d="M6935 1409 c-2 -3 -5 -70 -6 -150 l-1 -144 25 -3 c25 -3 26 -1 29 55
l3 58 48 -1 c58 0 79 -19 81 -71 1 -33 4 -38 28 -41 25 -3 26 -2 21 40 -3 24
-14 55 -24 70 -19 27 -19 27 6 52 30 30 32 71 5 106 -17 23 -27 25 -115 30
-53 3 -99 2 -100 -1z m149 -39 c32 -12 45 -55 24 -77 -18 -18 -86 -34 -110
-27 -14 4 -18 16 -18 53 0 26 3 51 7 54 10 10 68 8 97 -3z"/>
</g>
</svg>
