<?xml version="1.0" encoding="UTF-8"?>
<svg width="24px" height="24px" viewBox="0 0 24 24" version="1.1" xmlns="http://www.w3.org/2000/svg">
    <g stroke="none" stroke-width="1" fill="none" fill-rule="evenodd">
        <!-- Railsのロゴの円形部分 -->
        <circle fill="#CC0000" cx="12" cy="12" r="10"/>
        <!-- Railsのロゴの文字部分 -->
        <path d="M7.5,7.5 L16.5,7.5 C17.3284271,7.5 18,8.17157288 18,9 L18,15 C18,15.8284271 17.3284271,16.5 16.5,16.5 L7.5,16.5 C6.67157288,16.5 6,15.8284271 6,15 L6,9 C6,8.17157288 6.67157288,7.5 7.5,7.5 Z" fill="#FFFFFF"/>
        <!-- Railsのロゴの文字 "R" -->
        <path d="M9.5,9.5 L14.5,9.5 C14.7761424,9.5 15,9.72385763 15,10 L15,12.5 C15,12.7761424 14.7761424,13 14.5,13 L11.5,13 L15,16.5 L13.5,16.5 L10,13 L9.5,13 C9.22385763,13 9,12.7761424 9,12.5 L9,10 C9,9.72385763 9.22385763,9.5 9.5,9.5 Z" fill="#CC0000"/>
    </g>
</svg> 