<svg viewBox="0 0 128 128" xmlns="http://www.w3.org/2000/svg">
  <path fill="#FF6B00" d="M64 0C28.7 0 0 28.7 0 64s28.7 64 64 64 64-28.7 64-64S99.3 0 64 0zm0 117.3c-29.4 0-53.3-23.9-53.3-53.3S34.6 10.7 64 10.7s53.3 23.9 53.3 53.3-23.9 53.3-53.3 53.3z"/>
  <path fill="#FF6B00" d="M64 21.3c-23.6 0-42.7 19.1-42.7 42.7S40.4 106.7 64 106.7s42.7-19.1 42.7-42.7S87.6 21.3 64 21.3zm0 74.7c-17.6 0-32-14.4-32-32s14.4-32 32-32 32 14.4 32 32-14.4 32-32 32z"/>
  <path fill="#FF6B00" d="M64 42.7c-11.8 0-21.3 9.5-21.3 21.3S52.2 85.3 64 85.3s21.3-9.5 21.3-21.3S75.8 42.7 64 42.7zm0 32c-5.9 0-10.7-4.8-10.7-10.7S58.1 53.3 64 53.3s10.7 4.8 10.7 10.7S69.9 74.7 64 74.7z"/>
</svg>
